Coordinates
version=1
nRows=8
nColumns=36
inDegrees=yes

Units are S.I. units (second, meters, Newtons, ...)
If the header above contains a line with 'inDegrees', this indicates whether rotational values are in degrees (yes) or radians (no).

endheader
time	pelvis_tilt	pelvis_list	pelvis_rotation	pelvis_tx	pelvis_ty	pelvis_tz	hip_flexion_r	hip_adduction_r	hip_rotation_r	knee_angle_r	knee_angle_r_beta	ankle_angle_r	subtalar_angle_r	mtp_angle_r	hip_flexion_l	hip_adduction_l	hip_rotation_l	knee_angle_l	knee_angle_l_beta	ankle_angle_l	subtalar_angle_l	mtp_angle_l	lumbar_extension	lumbar_bending	lumbar_rotation	arm_flex_r	arm_add_r	arm_rot_r	elbow_flex_r	pro_sup_r	arm_flex_l	arm_add_l	arm_rot_l	elbow_flex_l	pro_sup_l
      4.43333330	    -11.70704894	      1.89388635	     -7.19568896	      0.95131759	      0.79011637	      0.37103852	     45.95039692	      6.66880593	     -4.46181656	     67.28370050	      1.17432211	     31.42307452	      2.80818507	     -7.49999987	     72.04243323	     -5.92367080	     11.41238282	     42.87616474	      0.74833025	      2.90631614	     -5.11159962	     -7.49999987	    -15.26461564	     12.35684755	     -0.20360310	     58.63212939	     -5.10718434	     77.68654948	    118.50114435	     99.99669524	     61.60337279	     -2.88876034	     65.42983205	    117.98435082	    109.91513385
      4.45000000	    -12.13730376	      1.73031786	     -7.36619024	      0.94634704	      0.78726071	      0.36924537	     46.99368873	      6.73546165	     -4.69566470	     68.08642956	      1.18833237	     31.64432810	      3.11274114	     -7.49999987	     72.71669058	     -6.29151096	     11.62706337	     42.52930783	      0.74227645	      2.49944575	     -4.95564108	     -7.49999987	    -15.52672635	     12.94331526	      0.07309101	     59.34567750	     -5.04389268	     78.28478109	    119.07548399	     99.67841860	     61.75789580	     -2.73574881	     65.48983089	    117.75687390	    109.73629561
      4.46666670	    -12.47675548	      1.58872591	     -7.49217079	      0.94649922	      0.78416844	      0.36860975	     47.55188909	      6.81143218	     -4.82009154	     68.59767676	      1.19725532	     31.92539442	      3.53991784	     -7.49999987	     73.23000190	     -6.54626148	     11.98027545	     42.15524568	      0.73574783	      2.21270006	     -4.92427466	     -7.49999987	    -15.76954316	     13.50849569	      0.40616980	     60.03745263	     -5.34065066	     79.15014419	    119.72723368	    100.46765493	     61.53969456	     -2.79113498	     65.14519571	    117.42006531	    109.80817783
      4.48333330	    -12.81887673	      1.50212271	     -7.55524040	      0.94611737	      0.78413769	      0.36910231	     47.92322819	      6.88468877	     -4.81068321	     68.74689624	      1.19985969	     31.65007723	      3.43734788	     -7.49999987	     73.36611824	     -6.79471958	     12.19022728	     41.44699966	      0.72338661	      1.85872109	     -4.66378523	     -7.49999987	    -15.98683410	     14.03986380	      0.57710065	     60.24821578	     -5.35528101	     80.66396811	    119.92523840	     99.90656765	     61.50285322	     -2.91766086	     65.70516474	    117.24332537	    110.24346649
      4.50000000	    -13.21062218	      1.52264290	     -7.82288847	      0.94190284	      0.78222323	      0.36639954	     48.79999978	      6.78972157	     -4.89252662	     69.25729312	      1.20876780	     31.53166953	      3.57657764	     -7.49999987	     73.78553655	     -7.07888742	     12.26619620	     40.95710162	      0.71483628	      1.38913213	     -4.21656007	     -7.49999987	    -16.51293653	     14.50444134	      0.99000745	     61.20870433	     -5.46577260	     81.04039849	    119.31491570	     99.60971050	     62.24983568	     -2.82769885	     65.79197256	    116.97242845	    110.09862941
      4.51666670	    -13.48218540	      1.56224795	     -7.90304334	      0.94145524	      0.77756024	      0.36709090	     49.38176135	      6.70301912	     -4.91519176	     69.71717427	      1.21679424	     31.57166324	      3.74634246	     -7.49999987	     74.06891156	     -7.24107467	     12.50295235	     40.83850160	      0.71276631	      1.14871506	     -4.03833641	     -7.49999987	    -16.82790065	     14.87949712	      1.05913259	     61.69364191	     -5.05111792	     81.31943456	    118.87504085	     99.93091085	     62.45618071	     -3.03003641	     65.86372592	    117.42877478	    110.69788052
      4.53333330	    -13.68602336	      1.55964963	     -8.04624061	      0.94162315	      0.77240909	      0.36690744	     50.04234378	      6.66382075	     -4.99895796	     70.41325189	      1.22894308	     31.58909073	      3.91467855	     -7.49999987	     74.32610835	     -7.47445276	     12.75130074	     40.61694472	      0.70889942	      0.92338147	     -3.82105904	     -7.49999987	    -17.15254172	     15.27374787	      1.37424980	     62.35975109	     -5.31371269	     80.54464896	    118.27986527	     99.83931414	     62.81758575	     -2.87041390	     65.63045407	    117.60855903	    110.52001443
      4.55000000	    -13.78814635	      1.67229246	     -8.23699834	      0.94084506	      0.77080913	      0.36308892	     50.32647314	      6.49858554	     -4.97445887	     70.73548015	      1.23456703	     31.56265290	      3.95561155	     -7.49999987	     74.48713322	     -7.58093962	     12.84109991	     40.51740733	      0.70716216	      0.83762300	     -3.74932374	     -7.49999987	    -17.61383067	     15.60355686	      1.33679234	     62.34138860	     -5.59625137	     80.48302708	    118.22642688	     99.83944879	     62.68748732	     -2.98287588	     65.58913763	    117.56308852	    110.52618133
